<svg xmlns="http://www.w3.org/2000/svg" xmlns:xlink="http://www.w3.org/1999/xlink" width="2000" zoomAndPan="magnify" viewBox="0 0 1500 1499.999933" height="2000" preserveAspectRatio="xMidYMid meet" version="1.0"><defs><clipPath id="e7efbaf55d"><path d="M 254.417969 661.394531 L 684.613281 661.394531 L 684.613281 1126.785156 L 254.417969 1126.785156 Z M 254.417969 661.394531 " clip-rule="nonzero"/></clipPath><clipPath id="0c7e2abcc3"><path d="M 341.214844 698.6875 L 596.003906 698.6875 L 596.003906 747.214844 L 341.214844 747.214844 Z M 341.214844 698.6875 " clip-rule="nonzero"/></clipPath><clipPath id="ee0d5ee662"><path d="M 341.21875 775.585938 L 595.996094 775.585938 L 595.996094 867.003906 L 341.21875 867.003906 Z M 341.21875 775.585938 " clip-rule="nonzero"/></clipPath><clipPath id="6d3382cce2"><path d="M 342.121094 920.675781 L 596.90625 920.675781 L 596.90625 975.800781 L 342.121094 975.800781 Z M 342.121094 920.675781 " clip-rule="nonzero"/></clipPath><clipPath id="ee4a30661c"><path d="M 341.222656 1004.300781 L 595.992188 1004.300781 L 595.992188 1093.515625 L 341.222656 1093.515625 Z M 341.222656 1004.300781 " clip-rule="nonzero"/></clipPath><clipPath id="6fa47a8c17"><path d="M 341.230469 1243.988281 L 595.984375 1243.988281 L 595.984375 1302.40625 L 341.230469 1302.40625 Z M 341.230469 1243.988281 " clip-rule="nonzero"/></clipPath><clipPath id="3200a4e537"><path d="M 910.890625 1243.988281 L 1165.648438 1243.988281 L 1165.648438 1302.40625 L 910.890625 1302.40625 Z M 910.890625 1243.988281 " clip-rule="nonzero"/></clipPath><clipPath id="2fe1981a30"><path d="M 910.886719 1004.300781 L 1165.652344 1004.300781 L 1165.652344 1093.515625 L 910.886719 1093.515625 Z M 910.886719 1004.300781 " clip-rule="nonzero"/></clipPath><clipPath id="97d935a861"><path d="M 910.875 920.675781 L 1165.660156 920.675781 L 1165.660156 975.800781 L 910.875 975.800781 Z M 910.875 920.675781 " clip-rule="nonzero"/></clipPath><clipPath id="6dbf9974d9"><path d="M 910.875 674.390625 L 1165.664062 674.390625 L 1165.664062 722.917969 L 910.875 722.917969 Z M 910.875 674.390625 " clip-rule="nonzero"/></clipPath><clipPath id="aec4f4682a"><path d="M 910.878906 751.285156 L 1165.65625 751.285156 L 1165.65625 842.703125 L 910.878906 842.703125 Z M 910.878906 751.285156 " clip-rule="nonzero"/></clipPath><clipPath id="4348f6a47e"><path d="M 910.875 554.300781 L 1165.660156 554.300781 L 1165.660156 609.425781 L 910.875 609.425781 Z M 910.875 554.300781 " clip-rule="nonzero"/></clipPath><clipPath id="72a341f895"><path d="M 910.875 464.007812 L 1165.660156 464.007812 L 1165.660156 519.132812 L 910.875 519.132812 Z M 910.875 464.007812 " clip-rule="nonzero"/></clipPath><clipPath id="29fc6a17f0"><path d="M 884.476562 330.878906 L 1191.976562 330.878906 L 1191.976562 386.003906 L 884.476562 386.003906 Z M 884.476562 330.878906 " clip-rule="nonzero"/></clipPath><clipPath id="4984f8c575"><path d="M 884.476562 240.503906 L 1191.976562 240.503906 L 1191.976562 295.628906 L 884.476562 295.628906 Z M 884.476562 240.503906 " clip-rule="nonzero"/></clipPath><clipPath id="920d578792"><path d="M 823.171875 411.710938 L 1253.367188 411.710938 L 1253.367188 1126.457031 L 823.171875 1126.457031 Z M 823.171875 411.710938 " clip-rule="nonzero"/></clipPath><clipPath id="bfc8b62bba"><path d="M 446.3125 1162.179688 L 492.71875 1162.179688 L 492.71875 1208.585938 L 446.3125 1208.585938 Z M 446.3125 1162.179688 " clip-rule="nonzero"/></clipPath><clipPath id="07d7072808"><path d="M 469.515625 1162.179688 C 456.699219 1162.179688 446.3125 1172.570312 446.3125 1185.382812 C 446.3125 1198.199219 456.699219 1208.585938 469.515625 1208.585938 C 482.332031 1208.585938 492.71875 1198.199219 492.71875 1185.382812 C 492.71875 1172.570312 482.332031 1162.179688 469.515625 1162.179688 Z M 469.515625 1162.179688 " clip-rule="nonzero"/></clipPath><clipPath id="99e8e26017"><path d="M 326.246094 1144.039062 L 408.746094 1144.039062 L 408.746094 1226.539062 L 326.246094 1226.539062 Z M 326.246094 1144.039062 " clip-rule="nonzero"/></clipPath><clipPath id="15b30fc1d7"><path d="M 367.59375 1144.039062 C 344.757812 1144.039062 326.246094 1162.550781 326.246094 1185.386719 C 326.246094 1208.222656 344.757812 1226.738281 367.59375 1226.738281 C 390.429688 1226.738281 408.945312 1208.222656 408.945312 1185.386719 C 408.945312 1162.550781 390.429688 1144.039062 367.59375 1144.039062 Z M 367.59375 1144.039062 " clip-rule="nonzero"/></clipPath><clipPath id="a17d0cecaf"><path d="M 1011.691406 1162.179688 L 1058.097656 1162.179688 L 1058.097656 1208.585938 L 1011.691406 1208.585938 Z M 1011.691406 1162.179688 " clip-rule="nonzero"/></clipPath><clipPath id="c0f2967b20"><path d="M 1034.894531 1208.585938 C 1047.707031 1208.585938 1058.097656 1198.199219 1058.097656 1185.382812 C 1058.097656 1172.570312 1047.707031 1162.179688 1034.894531 1162.179688 C 1022.078125 1162.179688 1011.691406 1172.570312 1011.691406 1185.382812 C 1011.691406 1198.199219 1022.078125 1208.585938 1034.894531 1208.585938 Z M 1034.894531 1208.585938 " clip-rule="nonzero"/></clipPath><clipPath id="5d8b2ca319"><path d="M 1093.492188 1144.238281 L 1175.992188 1144.238281 L 1175.992188 1226.738281 L 1093.492188 1226.738281 Z M 1093.492188 1144.238281 " clip-rule="nonzero"/></clipPath><clipPath id="7233d0c075"><path d="M 1134.640625 1226.738281 C 1157.480469 1226.738281 1175.992188 1208.222656 1175.992188 1185.386719 C 1175.992188 1162.550781 1157.480469 1144.039062 1134.640625 1144.039062 C 1111.804688 1144.039062 1093.292969 1162.550781 1093.292969 1185.386719 C 1093.292969 1208.222656 1111.804688 1226.738281 1134.640625 1226.738281 Z M 1134.640625 1226.738281 " clip-rule="nonzero"/></clipPath><clipPath id="7e0e4c1a93"><path d="M 335 1160 L 401 1160 L 401 1210 L 335 1210 Z M 335 1160 " clip-rule="nonzero"/></clipPath><clipPath id="959f617d0a"><path d="M 342.394531 1158.175781 L 401.738281 1200.519531 L 393.167969 1212.53125 L 333.824219 1170.183594 Z M 342.394531 1158.175781 " clip-rule="nonzero"/></clipPath><clipPath id="c1b47f75d8"><path d="M 370.625 1181.832031 C 381.984375 1186.992188 393.117188 1191.992188 400.179688 1202.695312 L 395.089844 1209.824219 C 387.585938 1199.03125 376.0625 1193.867188 364.929688 1188.867188 C 353.574219 1183.710938 342.441406 1178.710938 335.375 1168.007812 L 340.464844 1160.875 C 347.972656 1171.667969 359.492188 1176.832031 370.625 1181.832031 Z M 370.625 1181.832031 " clip-rule="nonzero"/></clipPath><clipPath id="0743b40c68"><path d="M 0.28125 0.640625 L 65.320312 0.640625 L 65.320312 49.839844 L 0.28125 49.839844 Z M 0.28125 0.640625 " clip-rule="nonzero"/></clipPath><clipPath id="decbd655c3"><path d="M 7.394531 -1.824219 L 66.738281 40.519531 L 58.167969 52.53125 L -1.175781 10.183594 Z M 7.394531 -1.824219 " clip-rule="nonzero"/></clipPath><clipPath id="d0b9886a63"><path d="M 35.625 21.832031 C 46.984375 26.992188 58.117188 31.992188 65.179688 42.695312 L 60.089844 49.824219 C 52.585938 39.03125 41.0625 33.867188 29.929688 28.867188 C 18.574219 23.710938 7.441406 18.710938 0.375 8.007812 L 5.464844 0.875 C 12.972656 11.667969 24.492188 16.832031 35.625 21.832031 Z M 35.625 21.832031 " clip-rule="nonzero"/></clipPath><clipPath id="7dddc52dd0"><rect x="0" width="66" y="0" height="50"/></clipPath><clipPath id="8f67f0f91a"><path d="M 1099 1160 L 1165 1160 L 1165 1210 L 1099 1210 Z M 1099 1160 " clip-rule="nonzero"/></clipPath><clipPath id="2a1b5e7803"><path d="M 1106.328125 1158.210938 L 1165.671875 1200.558594 L 1157.101562 1212.570312 L 1097.757812 1170.222656 Z M 1106.328125 1158.210938 " clip-rule="nonzero"/></clipPath><clipPath id="3b3d0dbbe2"><path d="M 1134.5625 1181.871094 C 1145.917969 1187.03125 1157.050781 1192.027344 1164.113281 1202.730469 L 1159.027344 1209.863281 C 1151.519531 1199.070312 1140 1193.90625 1128.863281 1188.90625 C 1117.507812 1183.75 1106.375 1178.75 1099.3125 1168.046875 L 1104.402344 1160.914062 C 1111.90625 1171.707031 1123.429688 1176.871094 1134.5625 1181.871094 Z M 1134.5625 1181.871094 " clip-rule="nonzero"/></clipPath><clipPath id="c4cf391e1b"><path d="M 0.199219 0.878906 L 65.238281 0.878906 L 65.238281 50 L 0.199219 50 Z M 0.199219 0.878906 " clip-rule="nonzero"/></clipPath><clipPath id="570e8d3b91"><path d="M 7.328125 -1.789062 L 66.671875 40.558594 L 58.101562 52.570312 L -1.242188 10.222656 Z M 7.328125 -1.789062 " clip-rule="nonzero"/></clipPath><clipPath id="7809011172"><path d="M 35.5625 21.871094 C 46.917969 27.03125 58.050781 32.027344 65.113281 42.730469 L 60.027344 49.863281 C 52.519531 39.070312 41 33.90625 29.863281 28.90625 C 18.507812 23.75 7.375 18.75 0.3125 8.046875 L 5.402344 0.914062 C 12.90625 11.707031 24.429688 16.871094 35.5625 21.871094 Z M 35.5625 21.871094 " clip-rule="nonzero"/></clipPath><clipPath id="6b56d87c31"><rect x="0" width="66" y="0" height="50"/></clipPath></defs><g clip-path="url(#e7efbaf55d)"><path stroke-linecap="butt" transform="matrix(0.75, 0, 0, 0.75, 254.418909, 661.393411)" fill="none" stroke-linejoin="miter" d="M -0.00125371 0.00149362 L 573.592546 0.00149362 L 573.592546 620.52238 L -0.00125371 620.52238 Z M -0.00125371 0.00149362 " stroke="#0081cc" stroke-width="20" stroke-opacity="1" stroke-miterlimit="4"/></g><g clip-path="url(#0c7e2abcc3)"><path stroke-linecap="butt" transform="matrix(0.75, 0, 0, 0.75, 341.213675, 698.689072)" fill="none" stroke-linejoin="miter" d="M 0.00155812 -0.00209576 L 339.720337 -0.00209576 L 339.720337 64.701035 L 0.00155812 64.701035 Z M 0.00155812 -0.00209576 " stroke="#0081cc" stroke-width="20" stroke-opacity="1" stroke-miterlimit="4"/></g><g clip-path="url(#ee0d5ee662)"><path stroke-linecap="butt" transform="matrix(0.75, 0, 0, 0.75, 341.219505, 775.584057)" fill="none" stroke-linejoin="miter" d="M -0.00100635 0.00250707 L 339.702126 0.00250707 L 339.702126 121.893135 L -0.00100635 121.893135 Z M -0.00100635 0.00250707 " stroke="#0081cc" stroke-width="20" stroke-opacity="1" stroke-miterlimit="4"/></g><g clip-path="url(#6d3382cce2)"><path stroke-linecap="butt" transform="matrix(0.75, 0, 0, 0.75, 342.122963, 920.674821)" fill="none" stroke-linejoin="miter" d="M -0.00249244 0.00128073 L 339.711078 0.00128073 L 339.711078 73.501287 L -0.00249244 73.501287 Z M -0.00249244 0.00128073 " stroke="#0081cc" stroke-width="20" stroke-opacity="1" stroke-miterlimit="4"/></g><g clip-path="url(#ee4a30661c)"><path stroke-linecap="butt" transform="matrix(0.75, 0, 0, 0.75, 341.224427, 1004.302405)" fill="none" stroke-linejoin="miter" d="M -0.00236121 -0.00216566 L 339.690376 -0.00216566 L 339.690376 118.95097 L -0.00236121 118.95097 Z M -0.00236121 -0.00216566 " stroke="#0081cc" stroke-width="20" stroke-opacity="1" stroke-miterlimit="4"/></g><g clip-path="url(#6fa47a8c17)"><path stroke-linecap="butt" transform="matrix(0.75, 0, 0, 0.75, 341.230082, 1243.986425)" fill="none" stroke-linejoin="miter" d="M 0.000516255 0.0024752 L 339.672421 0.0024752 L 339.672421 77.893107 L 0.000516255 77.893107 Z M 0.000516255 0.0024752 " stroke="#0081cc" stroke-width="20" stroke-opacity="1" stroke-miterlimit="4"/></g><g clip-path="url(#3200a4e537)"><path stroke-linecap="butt" transform="matrix(0.75, 0, 0, 0.75, 910.891059, 1243.986425)" fill="none" stroke-linejoin="miter" d="M -0.000578523 0.0024752 L 339.676534 0.0024752 L 339.676534 77.893107 L -0.000578523 77.893107 Z M -0.000578523 0.0024752 " stroke="#0081cc" stroke-width="20" stroke-opacity="1" stroke-miterlimit="4"/></g><g clip-path="url(#2fe1981a30)"><path stroke-linecap="butt" transform="matrix(0.75, 0, 0, 0.75, 910.885443, 1004.302405)" fill="none" stroke-linejoin="miter" d="M 0.00170114 -0.00216566 L 339.68923 -0.00216566 L 339.68923 118.95097 L 0.00170114 118.95097 Z M 0.00170114 -0.00216566 " stroke="#0081cc" stroke-width="20" stroke-opacity="1" stroke-miterlimit="4"/></g><g clip-path="url(#97d935a861)"><path stroke-linecap="butt" transform="matrix(0.75, 0, 0, 0.75, 910.876587, 920.674821)" fill="none" stroke-linejoin="miter" d="M -0.00211586 0.00128073 L 339.711455 0.00128073 L 339.711455 73.501287 L -0.00211586 73.501287 Z M -0.00211586 0.00128073 " stroke="#0081cc" stroke-width="20" stroke-opacity="1" stroke-miterlimit="4"/></g><g clip-path="url(#6dbf9974d9)"><path stroke-linecap="butt" transform="matrix(0.75, 0, 0, 0.75, 910.874667, 674.391594)" fill="none" stroke-linejoin="miter" d="M 0.000444142 -0.00129188 L 339.719223 -0.00129188 L 339.719223 64.701839 L 0.000444142 64.701839 Z M 0.000444142 -0.00129188 " stroke="#0081cc" stroke-width="20" stroke-opacity="1" stroke-miterlimit="4"/></g><g clip-path="url(#aec4f4682a)"><path stroke-linecap="butt" transform="matrix(0.75, 0, 0, 0.75, 910.880451, 751.286627)" fill="none" stroke-linejoin="miter" d="M -0.00205952 -0.00196139 L 339.701073 -0.00196139 L 339.701073 121.888666 L -0.00205952 121.888666 Z M -0.00205952 -0.00196139 " stroke="#0081cc" stroke-width="20" stroke-opacity="1" stroke-miterlimit="4"/></g><g clip-path="url(#4348f6a47e)"><path stroke-linecap="butt" transform="matrix(0.75, 0, 0, 0.75, 910.876587, 554.301268)" fill="none" stroke-linejoin="miter" d="M -0.00211586 -0.000649342 L 339.711455 -0.000649342 L 339.711455 73.499357 L -0.00211586 73.499357 Z M -0.00211586 -0.000649342 " stroke="#0081cc" stroke-width="20" stroke-opacity="1" stroke-miterlimit="4"/></g><g clip-path="url(#72a341f895)"><path stroke-linecap="butt" transform="matrix(0.75, 0, 0, 0.75, 910.876587, 464.00838)" fill="none" stroke-linejoin="miter" d="M -0.00211586 -0.000756711 L 339.711455 -0.000756711 L 339.711455 73.49925 L -0.00211586 73.49925 Z M -0.00211586 -0.000756711 " stroke="#0081cc" stroke-width="20" stroke-opacity="1" stroke-miterlimit="4"/></g><g clip-path="url(#29fc6a17f0)"><path stroke-linecap="butt" transform="matrix(0.75, 0, 0, 0.75, 884.478005, 330.880821)" fill="none" stroke-linejoin="miter" d="M -0.00192356 -0.00255313 L 410.107487 -0.00255313 L 410.107487 73.497453 L -0.00192356 73.497453 Z M -0.00192356 -0.00255313 " stroke="#0081cc" stroke-width="20" stroke-opacity="1" stroke-miterlimit="4"/></g><g clip-path="url(#4984f8c575)"><path stroke-linecap="butt" transform="matrix(0.75, 0, 0, 0.75, 884.478005, 240.503266)" fill="none" stroke-linejoin="miter" d="M -0.00192356 0.000854087 L 410.107487 0.000854087 L 410.107487 73.50086 L -0.00192356 73.50086 Z M -0.00192356 0.000854087 " stroke="#0081cc" stroke-width="20" stroke-opacity="1" stroke-miterlimit="4"/></g><g clip-path="url(#920d578792)"><path stroke-linecap="butt" transform="matrix(0.75, 0, 0, 0.75, 823.17253, 411.711233)" fill="none" stroke-linejoin="miter" d="M -0.00087393 -0.000393384 L 573.592925 -0.000393384 L 573.592925 953.426772 L -0.00087393 953.426772 Z M -0.00087393 -0.000393384 " stroke="#0081cc" stroke-width="20" stroke-opacity="1" stroke-miterlimit="4"/></g><g clip-path="url(#bfc8b62bba)"><g clip-path="url(#07d7072808)"><path stroke-linecap="butt" transform="matrix(0.75, 0, 0, 0.75, 446.312251, 1162.180536)" fill="none" stroke-linejoin="miter" d="M 30.937833 -0.0011312 C 13.849291 -0.0011312 0.000332123 13.853036 0.000332123 30.936369 C 0.000332123 48.024912 13.849291 61.87387 30.937833 61.87387 C 48.026375 61.87387 61.875333 48.024912 61.875333 30.936369 C 61.875333 13.853036 48.026375 -0.0011312 30.937833 -0.0011312 Z M 30.937833 -0.0011312 " stroke="#0081cc" stroke-width="20" stroke-opacity="1" stroke-miterlimit="4"/></g></g><g clip-path="url(#99e8e26017)"><g clip-path="url(#15b30fc1d7)"><path stroke-linecap="butt" transform="matrix(0.75, 0, 0, 0.75, 326.244615, 1144.037809)" fill="none" stroke-linejoin="miter" d="M 55.132185 0.00167072 C 24.684266 0.00167072 0.00197187 24.683965 0.00197187 55.131884 C 0.00197187 85.579803 24.684266 110.267305 55.132185 110.267305 C 85.580104 110.267305 110.267606 85.579803 110.267606 55.131884 C 110.267606 24.683965 85.580104 0.00167072 55.132185 0.00167072 Z M 55.132185 0.00167072 " stroke="#0081cc" stroke-width="20" stroke-opacity="1" stroke-miterlimit="4"/></g></g><g clip-path="url(#a17d0cecaf)"><g clip-path="url(#c0f2967b20)"><path stroke-linecap="butt" transform="matrix(-0.75, 0, 0, -0.75, 1058.097134, 1208.586788)" fill="none" stroke-linejoin="miter" d="M 30.936805 0.00113387 C 13.853471 0.00113387 -0.00069605 13.850093 -0.00069605 30.938635 C -0.00069605 48.021968 13.853471 61.876135 30.936805 61.876135 C 48.025347 61.876135 61.874305 48.021968 61.874305 30.938635 C 61.874305 13.850093 48.025347 0.00113387 30.936805 0.00113387 Z M 30.936805 0.00113387 " stroke="#0081cc" stroke-width="20" stroke-opacity="1" stroke-miterlimit="4"/></g></g><g clip-path="url(#5d8b2ca319)"><g clip-path="url(#7233d0c075)"><path stroke-linecap="butt" transform="matrix(-0.75, 0, 0, -0.75, 1175.991724, 1226.737026)" fill="none" stroke-linejoin="miter" d="M 55.134803 -0.00167322 C 24.681676 -0.00167322 -0.000617923 24.685829 -0.000617923 55.133748 C -0.000617923 85.581667 24.681676 110.263961 55.134803 110.263961 C 85.582723 110.263961 110.265017 85.581667 110.265017 55.133748 C 110.265017 24.685829 85.582723 -0.00167322 55.134803 -0.00167322 Z M 55.134803 -0.00167322 " stroke="#0081cc" stroke-width="20" stroke-opacity="1" stroke-miterlimit="4"/></g></g><path stroke-linecap="butt" transform="matrix(0, 0.75, -0.75, 0, 471.982841, 1204.942724)" fill="none" stroke-linejoin="miter" d="M -0.00175729 4.497955 L 57.591998 4.497955 " stroke="#0081cc" stroke-width="9" stroke-opacity="1" stroke-miterlimit="4"/><path stroke-linecap="butt" transform="matrix(0.75, -0.000000000000002604, 0.000000000000002604, 0.75, 401.182441, 1182.012886)" fill="none" stroke-linejoin="miter" d="M 0.00153674 4.498444 L 65.329667 4.498444 " stroke="#0081cc" stroke-width="9" stroke-opacity="1" stroke-miterlimit="4"/><path stroke-linecap="butt" transform="matrix(0, 0.75, -0.75, 0, 471.982841, 1126.793667)" fill="none" stroke-linejoin="miter" d="M -0.000930927 4.497955 L 57.587616 4.497955 " stroke="#0081cc" stroke-width="9" stroke-opacity="1" stroke-miterlimit="4"/><path stroke-linecap="butt" transform="matrix(0, 0.75, -0.75, 0, 471.982841, 1089.55875)" fill="none" stroke-linejoin="miter" d="M -0.000208537 4.497955 L 57.588338 4.497955 " stroke="#0081cc" stroke-width="9" stroke-opacity="1" stroke-miterlimit="4"/><path stroke-linecap="butt" transform="matrix(0.000000001309, 0.75, -0.75, 0.000000001309, 471.983729, 972.115624)" fill="none" stroke-linejoin="miter" d="M 0.0020843 4.499139 L 48.272922 4.499139 " stroke="#0081cc" stroke-width="9" stroke-opacity="1" stroke-miterlimit="4"/><path stroke-linecap="butt" transform="matrix(0, 0.75, -0.75, 0, 471.985169, 867.011161)" fill="none" stroke-linejoin="miter" d="M 0.000743238 4.501059 L 78.662208 4.501059 " stroke="#0081cc" stroke-width="9" stroke-opacity="1" stroke-miterlimit="4"/><path stroke-linecap="butt" transform="matrix(0, 0.75, -0.75, 0, 471.982001, 746.09118)" fill="none" stroke-linejoin="miter" d="M -0.00178132 4.502043 L 45.701348 4.502043 " stroke="#0081cc" stroke-width="9" stroke-opacity="1" stroke-miterlimit="4"/><path stroke-linecap="butt" transform="matrix(0, 0.75, -0.75, 0, 471.985841, 604.920624)" fill="none" stroke-linejoin="miter" d="M 0.00166814 4.501955 L 133.486055 4.501955 " stroke="#0081cc" stroke-width="9" stroke-opacity="1" stroke-miterlimit="4"/><path stroke-linecap="butt" transform="matrix(0.75, -0.000000000000000186, 0.000000000000000186, 0.75, 465.209201, 601.54428)" fill="none" stroke-linejoin="miter" d="M 0.00231496 4.498252 L 384.580473 4.498252 " stroke="#0081cc" stroke-width="9" stroke-opacity="1" stroke-miterlimit="4"/><path stroke-linecap="butt" transform="matrix(0.000000001309, 0.75, -0.75, 0.000000001309, 757.015168, 601.588344)" fill="none" stroke-linejoin="miter" d="M 0.00199941 4.499391 L 371.059323 4.499392 " stroke="#0081cc" stroke-width="9" stroke-opacity="1" stroke-miterlimit="4"/><path stroke-linecap="butt" transform="matrix(0.75, 0, 0, 0.75, 749.999969, 876.502873)" fill="none" stroke-linejoin="miter" d="M 0.0000416667 4.501379 L 290.104233 4.501379 " stroke="#0081cc" stroke-width="9" stroke-opacity="1" stroke-miterlimit="4"/><path stroke-linecap="butt" transform="matrix(0, 0.75, -0.75, 0, 1038.268888, 1204.423124)" fill="none" stroke-linejoin="miter" d="M -0.00166568 4.499143 L 57.592089 4.499143 " stroke="#0081cc" stroke-width="9" stroke-opacity="1" stroke-miterlimit="4"/><path stroke-linecap="butt" transform="matrix(0, 0.75, -0.75, 0, 1038.268888, 1122.446019)" fill="none" stroke-linejoin="miter" d="M -0.000942427 4.499143 L 57.587604 4.499143 " stroke="#0081cc" stroke-width="9" stroke-opacity="1" stroke-miterlimit="4"/><path stroke-linecap="butt" transform="matrix(0, 0.75, -0.75, 0, 1038.268888, 1089.03915)" fill="none" stroke-linejoin="miter" d="M -0.00011693 4.499143 L 57.58843 4.499143 " stroke="#0081cc" stroke-width="9" stroke-opacity="1" stroke-miterlimit="4"/><path stroke-linecap="butt" transform="matrix(0.000000001309, 0.75, -0.75, 0.000000001309, 1038.269704, 971.595952)" fill="none" stroke-linejoin="miter" d="M 0.00227191 4.500231 L 48.273109 4.500231 " stroke="#0081cc" stroke-width="9" stroke-opacity="1" stroke-miterlimit="4"/><path stroke-linecap="butt" transform="matrix(0.000000001309, 0.75, -0.75, 0.000000001309, 1038.267832, 839.382748)" fill="none" stroke-linejoin="miter" d="M 0.0000863906 4.497735 L 114.812596 4.497735 " stroke="#0081cc" stroke-width="9" stroke-opacity="1" stroke-miterlimit="4"/><path stroke-linecap="butt" transform="matrix(0, 0.75, -0.75, 0, 967.575838, 839.37946)" fill="none" stroke-linejoin="miter" d="M -0.000737935 4.502159 L 55.160725 4.502159 " stroke="#0081cc" stroke-width="9" stroke-opacity="1" stroke-miterlimit="4"/><path stroke-linecap="butt" transform="matrix(0.000000001309, 0.75, -0.75, 0.000000001309, 1038.270064, 604.402896)" fill="none" stroke-linejoin="miter" d="M -0.000736262 4.500711 L 100.775314 4.500711 " stroke="#0081cc" stroke-width="9" stroke-opacity="1" stroke-miterlimit="4"/><path stroke-linecap="butt" transform="matrix(0.75, -0.000000000000002604, 0.000000000000002604, 0.75, 1051.025559, 1185.387886)" fill="none" stroke-linejoin="miter" d="M 0.0023799 4.498444 L 65.325302 4.498444 " stroke="#0081cc" stroke-width="9" stroke-opacity="1" stroke-miterlimit="4"/><path stroke-linecap="butt" transform="matrix(0.000000001309, 0.75, -0.75, 0.000000001309, 1038.269464, 717.014342)" fill="none" stroke-linejoin="miter" d="M 0.00171034 4.499911 L 51.074631 4.499911 " stroke="#0081cc" stroke-width="9" stroke-opacity="1" stroke-miterlimit="4"/><path stroke-linecap="butt" transform="matrix(0, 0.75, -0.75, 0, 1038.270064, 516.513968)" fill="none" stroke-linejoin="miter" d="M 0.00220999 4.500711 L 55.851173 4.500711 " stroke="#0081cc" stroke-width="9" stroke-opacity="1" stroke-miterlimit="4"/><path stroke-linecap="butt" transform="matrix(0, 0.75, -0.75, 0, 1038.271576, 416.08516)" fill="none" stroke-linejoin="miter" d="M 0.00103645 4.497518 L 69.037501 4.497518 " stroke="#0081cc" stroke-width="9" stroke-opacity="1" stroke-miterlimit="4"/><path stroke-linecap="butt" transform="matrix(0, 0.75, -0.75, 0, 1038.271576, 383.733288)" fill="none" stroke-linejoin="miter" d="M 0.00144967 4.497518 L 69.037914 4.497518 " stroke="#0081cc" stroke-width="9" stroke-opacity="1" stroke-miterlimit="4"/><path stroke-linecap="butt" transform="matrix(0.000000001309, 0.75, -0.75, 0.000000001309, 1038.271576, 292.065922)" fill="none" stroke-linejoin="miter" d="M 0.000645601 4.497518 L 61.224609 4.497518 " stroke="#0081cc" stroke-width="9" stroke-opacity="1" stroke-miterlimit="4"/><g clip-path="url(#7e0e4c1a93)"><g clip-path="url(#959f617d0a)"><g clip-path="url(#c1b47f75d8)"><g transform="matrix(1, 0, 0, 1, 335, 1160)"><g clip-path="url(#7dddc52dd0)"><g clip-path="url(#0743b40c68)"><g clip-path="url(#decbd655c3)"><g clip-path="url(#d0b9886a63)"><path fill="#0081cc" d="M 7.394531 -1.824219 L 66.738281 40.519531 L 58.167969 52.53125 L -1.175781 10.183594 Z M 7.394531 -1.824219 " fill-opacity="1" fill-rule="nonzero"/></g></g></g></g></g></g></g></g><g clip-path="url(#8f67f0f91a)"><g clip-path="url(#2a1b5e7803)"><g clip-path="url(#3b3d0dbbe2)"><g transform="matrix(1, 0, 0, 1, 1099, 1160)"><g clip-path="url(#6b56d87c31)"><g clip-path="url(#c4cf391e1b)"><g clip-path="url(#570e8d3b91)"><g clip-path="url(#7809011172)"><path fill="#0081cc" d="M 7.328125 -1.789062 L 66.671875 40.558594 L 58.101562 52.570312 L -1.242188 10.222656 Z M 7.328125 -1.789062 " fill-opacity="1" fill-rule="nonzero"/></g></g></g></g></g></g></g></g></svg>