<svg width="32" height="32" viewBox="0 0 32 32" fill="none" xmlns="http://www.w3.org/2000/svg">
  <!-- Layer 3 (back) - offset up and right -->
  <g opacity="0.5">
    <rect x="10" y="2" width="4" height="4" rx="0.5" fill="#2563eb"/>
    <rect x="15" y="2" width="4" height="4" rx="0.5" fill="#2563eb"/>
    <rect x="20" y="2" width="4" height="4" rx="0.5" fill="#2563eb"/>
    <rect x="10" y="7" width="4" height="4" rx="0.5" fill="#2563eb"/>
    <rect x="15" y="7" width="4" height="4" rx="0.5" fill="#2563eb"/>
    <rect x="20" y="7" width="4" height="4" rx="0.5" fill="#2563eb"/>
    <rect x="10" y="12" width="4" height="4" rx="0.5" fill="#2563eb"/>
    <rect x="15" y="12" width="4" height="4" rx="0.5" fill="#2563eb"/>
    <rect x="20" y="12" width="4" height="4" rx="0.5" fill="#2563eb"/>
  </g>

  <!-- Layer 2 (middle) - offset -->
  <g opacity="0.75">
    <rect x="6" y="6" width="4" height="4" rx="0.5" fill="#2563eb"/>
    <rect x="11" y="6" width="4" height="4" rx="0.5" fill="#2563eb"/>
    <rect x="16" y="6" width="4" height="4" rx="0.5" fill="#2563eb"/>
    <rect x="6" y="11" width="4" height="4" rx="0.5" fill="#2563eb"/>
    <rect x="11" y="11" width="4" height="4" rx="0.5" fill="#2563eb"/>
    <rect x="16" y="11" width="4" height="4" rx="0.5" fill="#2563eb"/>
    <rect x="6" y="16" width="4" height="4" rx="0.5" fill="#2563eb"/>
    <rect x="11" y="16" width="4" height="4" rx="0.5" fill="#2563eb"/>
    <rect x="16" y="16" width="4" height="4" rx="0.5" fill="#2563eb"/>
  </g>

  <!-- Layer 1 (front) -->
  <g>
    <rect x="2" y="10" width="4" height="4" rx="0.5" fill="#2563eb"/>
    <rect x="7" y="10" width="4" height="4" rx="0.5" fill="#2563eb"/>
    <rect x="12" y="10" width="4" height="4" rx="0.5" fill="#2563eb"/>
    <rect x="2" y="15" width="4" height="4" rx="0.5" fill="#2563eb"/>
    <rect x="7" y="15" width="4" height="4" rx="0.5" fill="#2563eb"/>
    <rect x="12" y="15" width="4" height="4" rx="0.5" fill="#2563eb"/>
    <rect x="2" y="20" width="4" height="4" rx="0.5" fill="#2563eb"/>
    <rect x="7" y="20" width="4" height="4" rx="0.5" fill="#2563eb"/>
    <rect x="12" y="20" width="4" height="4" rx="0.5" fill="#2563eb"/>
  </g>
</svg>
