<svg width="32" height="32" viewBox="0 0 32 32" fill="none" xmlns="http://www.w3.org/2000/svg">
  <!-- Layer 3 (back) - top right, 50% opacity -->
  <g opacity="0.5">
    <rect x="11" y="1" width="4" height="4" rx="0.5" fill="#2563eb"/>
    <rect x="16" y="1" width="4" height="4" rx="0.5" fill="#2563eb"/>
    <rect x="21" y="1" width="4" height="4" rx="0.5" fill="#2563eb"/>
    <rect x="26" y="1" width="4" height="4" rx="0.5" fill="#2563eb"/>
    <rect x="11" y="6" width="4" height="4" rx="0.5" fill="#2563eb"/>
    <rect x="16" y="6" width="4" height="4" rx="0.5" fill="#2563eb"/>
    <rect x="21" y="6" width="4" height="4" rx="0.5" fill="#2563eb"/>
    <rect x="26" y="6" width="4" height="4" rx="0.5" fill="#2563eb"/>
    <rect x="11" y="11" width="4" height="4" rx="0.5" fill="#2563eb"/>
    <rect x="16" y="11" width="4" height="4" rx="0.5" fill="#2563eb"/>
    <rect x="21" y="11" width="4" height="4" rx="0.5" fill="#2563eb"/>
    <rect x="26" y="11" width="4" height="4" rx="0.5" fill="#2563eb"/>
    <rect x="11" y="16" width="4" height="4" rx="0.5" fill="#2563eb"/>
    <rect x="16" y="16" width="4" height="4" rx="0.5" fill="#2563eb"/>
    <rect x="21" y="16" width="4" height="4" rx="0.5" fill="#2563eb"/>
    <rect x="26" y="16" width="4" height="4" rx="0.5" fill="#2563eb"/>
  </g>

  <!-- Layer 2 (middle) - 75% opacity -->
  <g opacity="0.75">
    <rect x="6" y="4" width="4" height="4" rx="0.5" fill="#2563eb"/>
    <rect x="11" y="4" width="4" height="4" rx="0.5" fill="#2563eb"/>
    <rect x="16" y="4" width="4" height="4" rx="0.5" fill="#2563eb"/>
    <rect x="21" y="4" width="4" height="4" rx="0.5" fill="#2563eb"/>
    <rect x="6" y="9" width="4" height="4" rx="0.5" fill="#2563eb"/>
    <rect x="11" y="9" width="4" height="4" rx="0.5" fill="#2563eb"/>
    <rect x="16" y="9" width="4" height="4" rx="0.5" fill="#2563eb"/>
    <rect x="21" y="9" width="4" height="4" rx="0.5" fill="#2563eb"/>
    <rect x="6" y="14" width="4" height="4" rx="0.5" fill="#2563eb"/>
    <rect x="11" y="14" width="4" height="4" rx="0.5" fill="#2563eb"/>
    <rect x="16" y="14" width="4" height="4" rx="0.5" fill="#2563eb"/>
    <rect x="21" y="14" width="4" height="4" rx="0.5" fill="#2563eb"/>
    <rect x="6" y="19" width="4" height="4" rx="0.5" fill="#2563eb"/>
    <rect x="11" y="19" width="4" height="4" rx="0.5" fill="#2563eb"/>
    <rect x="16" y="19" width="4" height="4" rx="0.5" fill="#2563eb"/>
    <rect x="21" y="19" width="4" height="4" rx="0.5" fill="#2563eb"/>
  </g>

  <!-- Layer 1 (front) - 100% opacity -->
  <g>
    <rect x="1" y="7" width="4" height="4" rx="0.5" fill="#2563eb"/>
    <rect x="6" y="7" width="4" height="4" rx="0.5" fill="#2563eb"/>
    <rect x="11" y="7" width="4" height="4" rx="0.5" fill="#2563eb"/>
    <rect x="16" y="7" width="4" height="4" rx="0.5" fill="#2563eb"/>
    <rect x="1" y="12" width="4" height="4" rx="0.5" fill="#2563eb"/>
    <rect x="6" y="12" width="4" height="4" rx="0.5" fill="#2563eb"/>
    <rect x="11" y="12" width="4" height="4" rx="0.5" fill="#2563eb"/>
    <rect x="16" y="12" width="4" height="4" rx="0.5" fill="#2563eb"/>
    <rect x="1" y="17" width="4" height="4" rx="0.5" fill="#2563eb"/>
    <rect x="6" y="17" width="4" height="4" rx="0.5" fill="#2563eb"/>
    <rect x="11" y="17" width="4" height="4" rx="0.5" fill="#2563eb"/>
    <rect x="16" y="17" width="4" height="4" rx="0.5" fill="#2563eb"/>
    <rect x="1" y="22" width="4" height="4" rx="0.5" fill="#2563eb"/>
    <rect x="6" y="22" width="4" height="4" rx="0.5" fill="#2563eb"/>
    <rect x="11" y="22" width="4" height="4" rx="0.5" fill="#2563eb"/>
    <rect x="16" y="22" width="4" height="4" rx="0.5" fill="#2563eb"/>
  </g>
</svg>
