<svg width="32" height="32" viewBox="0 0 32 32" fill="none" xmlns="http://www.w3.org/2000/svg">
  <!-- Stacked matrices - LLM layers -->
  <!-- Matrix 1 -->
  <rect x="3" y="2" width="5" height="5" rx="0.5" fill="#2563eb"/>
  <rect x="9" y="2" width="5" height="5" rx="0.5" fill="#3b82f6"/>
  <rect x="15" y="2" width="5" height="5" rx="0.5" fill="#2563eb"/>
  <rect x="21" y="2" width="5" height="5" rx="0.5" fill="#3b82f6"/>

  <!-- Matrix 2 -->
  <rect x="3" y="9" width="5" height="5" rx="0.5" fill="#3b82f6"/>
  <rect x="9" y="9" width="5" height="5" rx="0.5" fill="#2563eb"/>
  <rect x="15" y="9" width="5" height="5" rx="0.5" fill="#3b82f6"/>
  <rect x="21" y="9" width="5" height="5" rx="0.5" fill="#2563eb"/>

  <!-- Matrix 3 -->
  <rect x="3" y="16" width="5" height="5" rx="0.5" fill="#2563eb"/>
  <rect x="9" y="16" width="5" height="5" rx="0.5" fill="#3b82f6"/>
  <rect x="15" y="16" width="5" height="5" rx="0.5" fill="#2563eb"/>
  <rect x="21" y="16" width="5" height="5" rx="0.5" fill="#3b82f6"/>

  <!-- Matrix 4 -->
  <rect x="3" y="23" width="5" height="5" rx="0.5" fill="#3b82f6"/>
  <rect x="9" y="23" width="5" height="5" rx="0.5" fill="#2563eb"/>
  <rect x="15" y="23" width="5" height="5" rx="0.5" fill="#3b82f6"/>
  <rect x="21" y="23" width="5" height="5" rx="0.5" fill="#2563eb"/>
</svg>
