<svg width="32" height="32" viewBox="0 0 32 32" fill="none" xmlns="http://www.w3.org/2000/svg">
  <!-- Layer 3 (back) - top right, 50% opacity -->
  <g opacity="0.5">
    <rect x="14" y="1" width="2.5" height="2.5" rx="0.3" fill="#2563eb"/>
    <rect x="17" y="1" width="2.5" height="2.5" rx="0.3" fill="#2563eb"/>
    <rect x="20" y="1" width="2.5" height="2.5" rx="0.3" fill="#2563eb"/>
    <rect x="23" y="1" width="2.5" height="2.5" rx="0.3" fill="#2563eb"/>
    <rect x="14" y="4" width="2.5" height="2.5" rx="0.3" fill="#2563eb"/>
    <rect x="17" y="4" width="2.5" height="2.5" rx="0.3" fill="#2563eb"/>
    <rect x="20" y="4" width="2.5" height="2.5" rx="0.3" fill="#2563eb"/>
    <rect x="23" y="4" width="2.5" height="2.5" rx="0.3" fill="#2563eb"/>
    <rect x="14" y="7" width="2.5" height="2.5" rx="0.3" fill="#2563eb"/>
    <rect x="17" y="7" width="2.5" height="2.5" rx="0.3" fill="#2563eb"/>
    <rect x="20" y="7" width="2.5" height="2.5" rx="0.3" fill="#2563eb"/>
    <rect x="23" y="7" width="2.5" height="2.5" rx="0.3" fill="#2563eb"/>
    <rect x="14" y="10" width="2.5" height="2.5" rx="0.3" fill="#2563eb"/>
    <rect x="17" y="10" width="2.5" height="2.5" rx="0.3" fill="#2563eb"/>
    <rect x="20" y="10" width="2.5" height="2.5" rx="0.3" fill="#2563eb"/>
    <rect x="23" y="10" width="2.5" height="2.5" rx="0.3" fill="#2563eb"/>
  </g>

  <!-- Layer 2 (middle) - 75% opacity -->
  <g opacity="0.75">
    <rect x="9" y="6" width="2.5" height="2.5" rx="0.3" fill="#2563eb"/>
    <rect x="12" y="6" width="2.5" height="2.5" rx="0.3" fill="#2563eb"/>
    <rect x="15" y="6" width="2.5" height="2.5" rx="0.3" fill="#2563eb"/>
    <rect x="18" y="6" width="2.5" height="2.5" rx="0.3" fill="#2563eb"/>
    <rect x="9" y="9" width="2.5" height="2.5" rx="0.3" fill="#2563eb"/>
    <rect x="12" y="9" width="2.5" height="2.5" rx="0.3" fill="#2563eb"/>
    <rect x="15" y="9" width="2.5" height="2.5" rx="0.3" fill="#2563eb"/>
    <rect x="18" y="9" width="2.5" height="2.5" rx="0.3" fill="#2563eb"/>
    <rect x="9" y="12" width="2.5" height="2.5" rx="0.3" fill="#2563eb"/>
    <rect x="12" y="12" width="2.5" height="2.5" rx="0.3" fill="#2563eb"/>
    <rect x="15" y="12" width="2.5" height="2.5" rx="0.3" fill="#2563eb"/>
    <rect x="18" y="12" width="2.5" height="2.5" rx="0.3" fill="#2563eb"/>
    <rect x="9" y="15" width="2.5" height="2.5" rx="0.3" fill="#2563eb"/>
    <rect x="12" y="15" width="2.5" height="2.5" rx="0.3" fill="#2563eb"/>
    <rect x="15" y="15" width="2.5" height="2.5" rx="0.3" fill="#2563eb"/>
    <rect x="18" y="15" width="2.5" height="2.5" rx="0.3" fill="#2563eb"/>
  </g>

  <!-- Layer 1 (front) - 100% opacity -->
  <g>
    <rect x="4" y="11" width="2.5" height="2.5" rx="0.3" fill="#2563eb"/>
    <rect x="7" y="11" width="2.5" height="2.5" rx="0.3" fill="#2563eb"/>
    <rect x="10" y="11" width="2.5" height="2.5" rx="0.3" fill="#2563eb"/>
    <rect x="13" y="11" width="2.5" height="2.5" rx="0.3" fill="#2563eb"/>
    <rect x="4" y="14" width="2.5" height="2.5" rx="0.3" fill="#2563eb"/>
    <rect x="7" y="14" width="2.5" height="2.5" rx="0.3" fill="#2563eb"/>
    <rect x="10" y="14" width="2.5" height="2.5" rx="0.3" fill="#2563eb"/>
    <rect x="13" y="14" width="2.5" height="2.5" rx="0.3" fill="#2563eb"/>
    <rect x="4" y="17" width="2.5" height="2.5" rx="0.3" fill="#2563eb"/>
    <rect x="7" y="17" width="2.5" height="2.5" rx="0.3" fill="#2563eb"/>
    <rect x="10" y="17" width="2.5" height="2.5" rx="0.3" fill="#2563eb"/>
    <rect x="13" y="17" width="2.5" height="2.5" rx="0.3" fill="#2563eb"/>
    <rect x="4" y="20" width="2.5" height="2.5" rx="0.3" fill="#2563eb"/>
    <rect x="7" y="20" width="2.5" height="2.5" rx="0.3" fill="#2563eb"/>
    <rect x="10" y="20" width="2.5" height="2.5" rx="0.3" fill="#2563eb"/>
    <rect x="13" y="20" width="2.5" height="2.5" rx="0.3" fill="#2563eb"/>
  </g>
</svg>
